<?xml version="1.0" encoding="UTF-8" standalone="no"?>
<!-- Created with Inkscape (http://www.inkscape.org/) -->

<svg
   width="17.600279mm"
   height="18.019335mm"
   viewBox="0 0 17.600279 18.019335"
   version="1.1"
   id="svg5"
   inkscape:version="1.1 (c68e22c387, 2021-05-23)"
   sodipodi:docname="icon-menu-small.svg"
   xmlns:inkscape="http://www.inkscape.org/namespaces/inkscape"
   xmlns:sodipodi="http://sodipodi.sourceforge.net/DTD/sodipodi-0.dtd"
   xmlns="http://www.w3.org/2000/svg"
   xmlns:svg="http://www.w3.org/2000/svg">
  <sodipodi:namedview
     id="namedview7"
     pagecolor="#ffffff"
     bordercolor="#666666"
     borderopacity="1.0"
     inkscape:pageshadow="2"
     inkscape:pageopacity="0.0"
     inkscape:pagecheckerboard="0"
     inkscape:document-units="mm"
     showgrid="false"
     inkscape:snap-global="false"
     fit-margin-top="0"
     fit-margin-left="0"
     fit-margin-right="0"
     fit-margin-bottom="0"
     inkscape:zoom="4.4930906"
     inkscape:cx="40.172793"
     inkscape:cy="69.106107"
     inkscape:window-width="1114"
     inkscape:window-height="871"
     inkscape:window-x="320"
     inkscape:window-y="74"
     inkscape:window-maximized="0"
     inkscape:current-layer="layer1" />
  <defs
     id="defs2" />
  <g
     inkscape:label="Layer 1"
     inkscape:groupmode="layer"
     id="layer1"
     transform="translate(-36.701229,-43.10574)">
    <path
       style="color:#000000;fill:#f2f2f2;fill-rule:evenodd;stroke-width:0.0724885;-inkscape-stroke:none;paint-order:stroke fill markers"
       d="m 40.810814,43.10574 h 9.381109 c 2.27671,0 4.109585,1.832875 4.109585,4.109585 v 9.800163 c 0,2.276711 -1.832875,4.109586 -4.109585,4.109586 h -9.381109 c -2.27671,0 -4.109585,-1.832875 -4.109585,-4.109586 v -9.800163 c 0,-2.27671 1.832875,-4.109585 4.109585,-4.109585 z"
       id="rect880"
       inkscape:export-filename="C:\Users\elena\Desktop\img-4-mob-1st\icon-menu-1.png"
       inkscape:export-xdpi="39.391441"
       inkscape:export-ydpi="39.391441" />
    <path
       style="color:#000000;opacity:0.192182;fill:#808080;fill-rule:evenodd;stroke-width:0.0302123;-inkscape-stroke:none;paint-order:stroke fill markers"
       d="m 40.910861,47.916179 h 8.368214 c 0.455341,0 0.821917,0.332928 0.821917,0.746474 0,0.413547 -0.366576,0.746475 -0.821917,0.746475 h -8.368214 c -0.455343,0 -0.821917,-0.332928 -0.821917,-0.746475 0,-0.413546 0.366574,-0.746474 0.821917,-0.746474 z"
       id="rect992-6"
       inkscape:export-filename="C:\Users\elena\Desktop\img-4-mob-1st\icon-menu-1.png"
       inkscape:export-xdpi="39.391441"
       inkscape:export-ydpi="39.391441" />
    <path
       style="color:#000000;fill:#4d4d4d;fill-rule:evenodd;stroke-width:0.0293764;-inkscape-stroke:none;paint-order:stroke fill markers"
       d="m 41.202678,47.13087 h 8.368214 c 0.455343,0 0.821917,0.314761 0.821917,0.705741 0,0.390982 -0.366574,0.705742 -0.821917,0.705742 h -8.368214 c -0.455342,0 -0.821917,-0.31476 -0.821917,-0.705742 0,-0.39098 0.366575,-0.705741 0.821917,-0.705741 z"
       id="rect992"
       inkscape:export-filename="C:\Users\elena\Desktop\img-4-mob-1st\icon-menu-1.png"
       inkscape:export-xdpi="39.391441"
       inkscape:export-ydpi="39.391441" />
    <path
       style="color:#000000;opacity:0.192182;fill:#808080;fill-rule:evenodd;stroke-width:0.0302123;-inkscape-stroke:none;paint-order:stroke fill markers"
       d="m 40.910861,55.704152 h 8.368214 c 0.455341,0 0.821917,0.332928 0.821917,0.746475 0,0.413546 -0.366576,0.746474 -0.821917,0.746474 h -8.368214 c -0.455343,0 -0.821917,-0.332928 -0.821917,-0.746474 0,-0.413547 0.366574,-0.746475 0.821917,-0.746475 z"
       id="rect992-8-5"
       inkscape:export-filename="C:\Users\elena\Desktop\img-4-mob-1st\icon-menu-1.png"
       inkscape:export-xdpi="39.391441"
       inkscape:export-ydpi="39.391441" />
    <path
       style="color:#000000;fill:#4d4d4d;fill-rule:evenodd;stroke-width:0.0293764;-inkscape-stroke:none;paint-order:stroke fill markers"
       d="m 41.202678,54.703994 h 8.368214 c 0.455343,0 0.821917,0.314761 0.821917,0.705742 0,0.390981 -0.366574,0.705741 -0.821917,0.705741 h -8.368214 c -0.455342,0 -0.821917,-0.31476 -0.821917,-0.705741 0,-0.390981 0.366575,-0.705742 0.821917,-0.705742 z"
       id="rect992-8"
       inkscape:export-filename="C:\Users\elena\Desktop\img-4-mob-1st\icon-menu-1.png"
       inkscape:export-xdpi="39.391441"
       inkscape:export-ydpi="39.391441" />
    <path
       style="color:#000000;opacity:0.192182;fill:#808080;fill-rule:evenodd;stroke-width:0.0254076;-inkscape-stroke:none;paint-order:stroke fill markers"
       d="m 40.910861,51.810167 h 5.436872 c 0.455342,0 0.821917,0.332928 0.821917,0.746475 0,0.413546 -0.366575,0.746474 -0.821917,0.746474 h -5.436872 c -0.455343,0 -0.821917,-0.332928 -0.821917,-0.746474 0,-0.413547 0.366574,-0.746475 0.821917,-0.746475 z"
       id="rect992-1-6"
       inkscape:export-filename="C:\Users\elena\Desktop\img-4-mob-1st\icon-menu-1.png"
       inkscape:export-xdpi="39.391441"
       inkscape:export-ydpi="39.391441" />
    <path
       style="color:#000000;fill:#4d4d4d;fill-rule:evenodd;stroke-width:0.0247046;-inkscape-stroke:none;paint-order:stroke fill markers"
       d="m 41.202678,50.917431 h 5.436873 c 0.455342,0 0.821917,0.314761 0.821917,0.705742 0,0.39098 -0.366575,0.705741 -0.821917,0.705741 h -5.436873 c -0.455342,0 -0.821917,-0.314761 -0.821917,-0.705741 0,-0.390981 0.366575,-0.705742 0.821917,-0.705742 z"
       id="rect992-1"
       inkscape:export-filename="C:\Users\elena\Desktop\img-4-mob-1st\icon-menu-1.png"
       inkscape:export-xdpi="39.391441"
       inkscape:export-ydpi="39.391441" />
  </g>
</svg>
